<svg width="320" height="220" viewBox="0 0 320 220" fill="none" xmlns="http://www.w3.org/2000/svg">
  <defs>
    <linearGradient id="bg" x1="0" y1="0" x2="1" y2="1">
      <stop offset="0%" stop-color="#B388FF" stop-opacity="0.18"/>
      <stop offset="100%" stop-color="#7C4DFF" stop-opacity="0.18"/>
    </linearGradient>
  </defs>
  <rect x="0" y="0" width="320" height="220" rx="20" fill="url(#bg)"/>
  <!-- Chat bubbles -->
  <g>
    <rect x="40" y="40" width="120" height="60" rx="16" fill="#F3E8FF"/>
    <circle cx="56" cy="58" r="6" fill="#9C27B0"/>
    <rect x="68" y="52" width="76" height="12" rx="6" fill="#D1C4E9"/>
    <rect x="68" y="70" width="56" height="10" rx="5" fill="#D1C4E9"/>
  </g>
  <g>
    <rect x="170" y="100" width="110" height="52" rx="16" fill="#EDE7F6"/>
    <rect x="184" y="114" width="78" height="10" rx="5" fill="#C5CAE9"/>
    <rect x="184" y="130" width="54" height="8" rx="4" fill="#C5CAE9"/>
  </g>
  <!-- Stylized people -->
  <g>
    <circle cx="84" cy="132" r="18" fill="#7E57C2"/>
    <rect x="68" y="148" width="32" height="28" rx="10" fill="#9575CD"/>
    <rect x="56" y="178" width="56" height="10" rx="5" fill="#D1C4E9"/>
  </g>
  <g>
    <circle cx="226" cy="64" r="16" fill="#5E35B1"/>
    <rect x="210" y="80" width="30" height="24" rx="9" fill="#7E57C2"/>
    <rect x="198" y="106" width="54" height="10" rx="5" fill="#C5CAE9"/>
  </g>
  <!-- Title -->
  <text x="160" y="204" text-anchor="middle" font-family="Inter, system-ui, -apple-system, Segoe UI, Roboto" font-size="14" fill="#4A148C">Inicie uma nova conversa</text>
</svg>